<?xml version="1.0" encoding="UTF-8"?>
<svg xmlns="http://www.w3.org/2000/svg" version="1.1" viewBox="0 0 128 128">
  <!-- Generator: Adobe Illustrator 29.1.0, SVG Export Plug-In . SVG Version: 2.1.0 Build 142)  -->
  <defs>
    <style>
      .st0 {
        stroke-width: 2px;
      }

      .st0, .st1 {
        fill: none;
      }

      .st0, .st1, .st2 {
        stroke: #000;
        stroke-miterlimit: 10;
      }

      .st1, .st2 {
        stroke-width: 6px;
      }

      .st2 {
        fill: #fff;
      }
    </style>
  </defs>
  <g id="Layer_2">
    <polyline class="st2" points="43.78 121.9 41.88 121.9 7.19 86.83 7.19 41.36 41.88 5.33 86.97 5.33 122.04 40.01 122.04 85.68 87.55 121.9 42.36 121.9"/>
  </g>
  <g id="Layer_1">
    <polygon class="st0" points="44.09 56.34 56.81 43.48 41.97 6.48 8.64 42.03 44.09 56.34"/>
    <polyline class="st0" points="56.81 43.48 72.71 43.57 86.39 7.06"/>
    <polyline class="st0" points="72.23 43.57 84.27 56.34 120.4 41.94"/>
    <polyline class="st0" points="84.27 56.34 84.66 71.61 120.4 85.29"/>
    <polyline class="st0" points="84.66 71.61 72.23 83.46 87.55 121.9"/>
    <polyline class="st0" points="72.23 83.46 56.81 83.65 41.88 122.67"/>
    <polyline class="st0" points="56.81 83.65 44 71.61 8.64 86.06"/>
    <line class="st0" x1="44.09" y1="56.34" x2="44" y2="71.61"/>
    <polyline class="st1" points="43.78 121.9 41.88 121.9 7.19 86.83 7.19 41.36 41.88 5.33 86.97 5.33 122.04 40.01 122.04 85.68 87.55 121.9 42.36 121.9"/>
    <polygon class="st0" points="68.68 65.3 64.18 67.89 59.69 65.3 59.69 60.1 64.18 57.51 68.68 60.1 68.68 65.3"/>
  </g>
</svg>